PathFileType	4	(X/Y/Z)	Kaydara	
DataRate	CameraRate	NumFrames	NumMarkers	Units	OrigDataRate	OrigDataStartFrame	OrigNumFrames	
120.00	120.00	4	72	mm	120.00	131	261	
Frame#	Time	Hips			RightUpLeg			RightLeg			RightFoot			RightFoot_End			LeftUpLeg			LeftLeg			LeftFoot			LeftFoot_End			Spine			Spine1			Spine2			Spine3			Neck			Head			Head_End			RightShoulder			RightArm			RightForeArm			RightHand			RightHandThumb1			RightHandThumb2			RightHandThumb3			RightHandThumb3_End			RightInHandIndex			RightHandIndex1			RightHandIndex2			RightHandIndex3			RightHandIndex3_End			RightInHandMiddle			RightHandMiddle1			RightHandMiddle2			RightHandMiddle3			RightHandMiddle3_End			RightInHandRing			RightHandRing1			RightHandRing2			RightHandRing3			RightHandRing3_End			RightInHandPinky			RightHandPinky1			RightHandPinky2			RightHandPinky3			RightHandPinky3_End			LeftShoulder			LeftArm			LeftForeArm			LeftHand			LeftHandThumb1			LeftHandThumb2			LeftHandThumb3			LeftHandThumb3_End			LeftInHandIndex			LeftHandIndex1			LeftHandIndex2			LeftHandIndex3			LeftHandIndex3_End			LeftInHandMiddle			LeftHandMiddle1			LeftHandMiddle2			LeftHandMiddle3			LeftHandMiddle3_End			LeftInHandRing			LeftHandRing1			LeftHandRing2			LeftHandRing3			LeftHandRing3_End			LeftInHandPinky			LeftHandPinky1			LeftHandPinky2			LeftHandPinky3			LeftHandPinky3_End			
		X1	Y1	Z1	X2	Y2	Z2	X3	Y3	Z3	X4	Y4	Z4	X5	Y5	Z5	X6	Y6	Z6	X7	Y7	Z7	X8	Y8	Z8	X9	Y9	Z9	X10	Y10	Z10	X11	Y11	Z11	X12	Y12	Z12	X13	Y13	Z13	X14	Y14	Z14	X15	Y15	Z15	X16	Y16	Z16	X17	Y17	Z17	X18	Y18	Z18	X19	Y19	Z19	X20	Y20	Z20	X21	Y21	Z21	X22	Y22	Z22	X23	Y23	Z23	X24	Y24	Z24	X25	Y25	Z25	X26	Y26	Z26	X27	Y27	Z27	X28	Y28	Z28	X29	Y29	Z29	X30	Y30	Z30	X31	Y31	Z31	X32	Y32	Z32	X33	Y33	Z33	X34	Y34	Z34	X35	Y35	Z35	X36	Y36	Z36	X37	Y37	Z37	X38	Y38	Z38	X39	Y39	Z39	X40	Y40	Z40	X41	Y41	Z41	X42	Y42	Z42	X43	Y43	Z43	X44	Y44	Z44	X45	Y45	Z45	X46	Y46	Z46	X47	Y47	Z47	X48	Y48	Z48	X49	Y49	Z49	X50	Y50	Z50	X51	Y51	Z51	X52	Y52	Z52	X53	Y53	Z53	X54	Y54	Z54	X55	Y55	Z55	X56	Y56	Z56	X57	Y57	Z57	X58	Y58	Z58	X59	Y59	Z59	X60	Y60	Z60	X61	Y61	Z61	X62	Y62	Z62	X63	Y63	Z63	X64	Y64	Z64	X65	Y65	Z65	X66	Y66	Z66	X67	Y67	Z67	X68	Y68	Z68	X69	Y69	Z69	X70	Y70	Z70	X71	Y71	Z71	X72	Y72	Z72	

131	1.083	81.20300000000043	893.81699	129.612	170.8377499999997	904.2210800000001	107.41986	64.28385000000071	501.99938	58.807249999999996	43.35149000000001	115.25608000000001	44.83709999999999	-66.47114000000056	45.54007	184.8988	2.248019999999997	856.93405	166.26509	-107.96680000000015	470.33577	283.8540299999999	-239.9631499999996	93.29784000000001	479.13705	-380.96195999999964	49.29099000000001	357.80551	28.73635000000013	1015.04653	74.83326	-23.943430000000262	1078.7379299999998	23.90398	-82.35771000000022	1139.4444599999997	-32.07362	-142.37019000000055	1188.7387799999997	-90.50242	-208.77475999999933	1242.4254599999997	-149.61526000000003	-281.8306499999999	1283.03143	-193.03849000000002	-419.8218000000006	1361.7756500000003	-207.11117999999996	-163.20351000000028	1244.34571	-138.45375999999996	-70.01248000000032	1320.70343	-179.86883999999998	100.14928000000054	1154.76904	-297.73064000000005	331.52783999999974	1148.40636	-415.70564	348.6506900000004	1181.4937799999998	-430.16084000000006	358.2652699999999	1194.4671299999998	-463.2593199999999	366.50874999999996	1199.3668499999999	-486.9772	374.7051599999995	1199.91421	-507.3213100000001	357.4090100000003	1170.88816	-432.47494000000006	395.60743	1184.7937300000003	-466.6761599999999	413.4374000000007	1188.1608000000003	-497.99291	415.4931399999996	1189.0798800000002	-518.38999	411.1042299999999	1189.0485299999998	-535.89824	359.8734800000002	1158.8579100000002	-433.4589	398.46659999999974	1165.91562	-467.3478300000001	418.1129999999994	1167.94941	-501.54891999999995	420.6844799999999	1168.2710799999995	-526.17081	415.9266099999995	1167.85411	-545.3346099999999	360.7464600000003	1150.0434900000002	-433.21616000000006	396.4032699999998	1148.83352	-463.18609999999995	413.6596899999995	1148.91802	-492.97211999999996	416.21047	1148.33177	-516.7092599999999	411.77020000000084	1147.51488	-534.7220800000001	359.8062799999998	1139.1679600000002	-432.45874	392.3008799999998	1131.4915200000003	-459.27249	406.1697000000004	1128.93042	-482.95671	408.0546800000002	1127.2312	-500.18975000000006	404.13539000000037	1125.77573	-516.0995999999999	-210.02443999999923	1203.38376	-122.38172999999999	-280.9502500000008	1096.42379	-114.02960000000002	-38.09455999999955	1079.7646399999999	-217.97812999999996	202.8741199999995	1117.6467099999998	-307.35274	220.60808999999972	1153.42092	-308.97566000000006	248.16847999999936	1170.5247699999998	-291.5360299999999	269.4915199999996	1178.54364	-279.89448	289.0897699999996	1181.8988899999997	-270.62006999999994	229.95235999999932	1143.91998	-313.09379000000007	278.8823199999997	1164.5710100000001	-314.35923999999994	312.49604	1172.6949799999998	-303.6773299999999	327.6221000000005	1175.88474	-290.18143999999995	336.24883000000045	1177.2696699999997	-274.38701	234.02178000000004	1132.31795	-313.8693599999999	283.94786999999997	1146.1865800000003	-315.52644000000004	321.0048200000001	1153.4458000000002	-303.95415	339.4350800000002	1156.5236199999997	-287.71203	348.96237999999994	1157.66441	-270.4496	235.67630000000008	1123.6362300000003	-314.50595	281.9385000000002	1128.65211	-316.8974999999999	314.54451999999947	1133.31581	-306.89274	332.4850200000001	1135.4012199999997	-291.2693	341.5203300000003	1136.0552100000002	-275.0588	235.94436000000042	1112.70016	-314.25021000000004	278.65110000000004	1110.70658	-316.69231	305.0378700000001	1111.82373	-308.79699	318.2577799999999	1112.07872	-297.45736000000005	326.3387300000004	1111.9294	-283.12983
132	1.092	81.20300000000043	893.81699	129.612	170.82747999999992	904.1398099999999	107.34058999999999	64.50043000000005	501.90916999999996	58.30711000000001	43.80265999999938	115.15909	44.17573999999999	-65.99650999999994	45.43845	184.25352000000004	2.2521600000000035	857.0234399999999	166.36372999999998	-108.12585000000036	470.4757599999999	283.96592999999996	-239.5029400000003	93.16785999999999	479.14509	-380.4918200000002	49.15293	357.80493999999993	28.77310000000034	1015.02353	74.74726	-23.90639999999985	1078.6759300000003	23.768940000000004	-82.32488999999987	1139.33506	-32.25562999999999	-142.3486499999999	1188.57083	-90.72217999999998	-208.76415000000088	1242.19994	-149.87501000000003	-281.8244599999998	1282.7648299999998	-193.32917	-419.85256000000027	1361.43078	-207.47699999999998	-163.1809800000001	1244.1038799999997	-138.75951	-69.98732999999993	1320.34074	-180.39079999999996	99.94510999999966	1154.00263	-298.01412999999997	331.2449400000005	1146.7594500000002	-416.0926999999999	348.39888000000064	1179.8247800000001	-430.56157999999994	358.02214000000004	1192.77705	-463.66578999999996	366.2674700000007	1197.6603100000002	-487.38642	374.4618300000002	1198.1924400000003	-507.73176000000007	357.1463300000005	1169.2096399999998	-432.8731	395.35422000000017	1183.0652899999998	-467.08402	413.18355000000065	1186.4037300000002	-498.40420000000006	415.2375999999995	1187.3136599999998	-518.8018500000001	410.8464300000005	1187.2806	-536.30954	359.59870000000046	1157.1766	-433.85319000000004	398.19452	1164.18411	-467.74948	417.8385699999999	1166.1864499999997	-501.95377	420.40723999999955	1166.497	-526.5761000000001	415.6465100000005	1166.0781100000002	-545.7391500000001	360.46294000000034	1148.36141	-433.60749999999996	396.11471000000074	1147.1055299999998	-463.5815499999999	413.36740999999984	1147.1624899999997	-493.3697900000001	415.91457999999966	1146.56545	-517.10705	411.4712099999997	1145.7467099999997	-535.11902	359.51202999999987	1137.48708	-432.84618	391.99554999999964	1129.76897	-459.66139000000004	405.8588	1127.18584	-483.34647999999993	407.73989000000074	1125.4787500000002	-500.57916000000006	403.81713000000036	1124.02166	-516.48801	-210.0205100000003	1203.21097	-122.56634999999999	-280.94685000000027	1096.26341	-114.06122	-38.13265000000047	1079.3257099999996	-218.06166000000002	202.81434999999965	1116.8675300000002	-307.6380500000001	220.70965999999953	1152.5549700000001	-309.395	248.40021999999954	1169.57013	-292.07523	269.7943099999993	1177.51622	-280.51441000000005	289.4350199999999	1180.80137	-271.3049600000001	229.9975400000003	1143.00122	-313.51849	279.0190899999998	1163.4212199999997	-314.97417	312.70136	1171.4129800000003	-304.40909000000005	327.88152999999966	1174.5631299999998	-290.96475	336.56080999999995	1175.94398	-275.19878	234.01068000000032	1131.37862	-314.2792299999999	283.9956599999996	1145.0107799999998	-316.11385	321.1196799999998	1152.1238	-304.66642999999993	339.61153000000013	1155.1529	-288.48528	349.19452999999976	1156.2887800000003	-271.25338000000005	235.62294999999995	1122.6878600000002	-314.9006699999999	281.9007700000002	1127.4827600000003	-317.4386999999999	314.55727000000024	1132.01745	-307.53984999999994	332.55292999999983	1134.0550099999998	-291.97364999999996	341.6386199999997	1134.704	-275.79112	235.8408900000004	1111.7512699999997	-314.62056000000007	278.5305699999999	1109.5532499999997	-317.18264	304.94524999999976	1110.56557	-309.36691	318.1993399999992	1110.78493	-298.06651000000005	326.32142999999996	1110.6307400000003	-283.7623
133	1.1	81.20300000000043	893.81699	129.612	170.81646	904.04435	107.25235	64.71690999999919	501.8107800000001	57.75228	44.2493400000003	115.05432999999998	43.46081000000001	-65.55569000000014	45.33608	183.53518	2.2544599999991988	857.12562	166.47066000000004	-108.2177499999998	470.61411999999996	284.10333	-238.9917800000003	93.01986	479.1336299999999	-380.0116800000005	48.99171	357.83433	28.82295999999951	1015.00772	74.66474999999998	-23.85355999999956	1078.6240199999997	23.63832	-82.27422000000024	1139.23826	-32.432550000000006	-142.308	1188.41724	-90.9366	-208.73262999999952	1241.99123	-150.12910000000002	-281.8151600000001	1282.5055199999997	-193.59311	-419.8932500000001	1361.0926600000003	-207.69105000000002	-163.13651000000027	1243.8743000000002	-139.06329	-69.94256000000041	1319.9896	-180.91574	99.74533000000065	1153.25845	-298.33548	330.95723	1145.1223700000003	-416.52806999999996	348.0963700000002	1178.20079	-430.98454	357.71907999999985	1191.1673099999998	-464.0833300000001	365.9663500000006	1196.0615	-487.8010300000001	374.16431999999986	1196.6036	-508.14466000000004	356.84990000000016	1167.5909400000003	-433.29732	395.0569599999999	1181.4763200000002	-467.49709000000007	412.89050000000043	1184.83287	-498.81294	414.94797000000017	1185.7495300000003	-519.2099499999999	410.56017000000065	1185.71897	-536.7184800000001	359.30884999999944	1155.55948	-434.28025999999994	397.9074099999998	1162.59683	-468.16723	417.5569400000004	1164.61906	-502.36719999999997	420.13014999999996	1164.9377699999998	-526.98895	415.37330999999995	1164.52164	-546.1530300000001	360.1777199999997	1146.74468	-434.03684000000004	395.83588000000054	1145.5159999999998	-464.0044100000002	413.09424000000035	1145.59035	-493.78933	415.6462699999993	1145.00122	-517.52626	411.2067700000007	1144.1851	-535.5393100000001	359.2324400000007	1135.86963	-433.2787	391.72518000000036	1128.1761800000002	-460.0898199999999	405.59431999999924	1125.6069499999999	-483.77297	407.47962000000007	1123.9056199999998	-501.00577	403.56066999999985	1122.4508400000002	-516.9157599999999	-209.99812999999995	1203.05783	-122.74169	-280.93876	1096.11675	-114.27432	-38.11164000000008	1079.21419	-218.2503	202.85873999999967	1116.8717400000003	-307.71515	220.9063299999998	1152.4749900000002	-309.61652000000004	248.72449000000051	1169.4107300000003	-292.42385999999993	270.18862999999965	1177.2909500000003	-280.9481	289.87163000000055	1180.5121599999998	-271.8066	230.13925999999992	1142.86984	-313.7440199999999	279.24600999999984	1163.06867	-315.39997000000005	312.99531000000025	1170.9376	-304.95732999999996	328.2301299999999	1174.05421	-291.56710000000004	336.96339999999964	1175.4362000000003	-275.83107000000007	234.09860000000026	1131.2277	-314.48757	284.13758999999936	1144.63355	-316.50822	321.32738999999947	1151.61072	-305.19148	339.8816400000005	1154.59849	-289.07418999999993	349.5219899999993	1155.7351800000001	-271.87436	235.67050000000017	1122.52834	-315.09194	281.96113999999943	1127.11171	-317.78243000000003	314.66737999999987	1131.5264799999998	-307.99417	332.7191899999998	1133.52338	-292.48783000000003	341.8568700000005	1134.17276	-276.33463	235.84091999999964	1111.5916399999999	-314.78486000000004	278.5124500000002	1109.19802	-317.47085	304.9550300000001	1110.11289	-309.73787000000004	318.2443000000003	1110.3019100000001	-298.47831999999994	326.40914000000066	1110.1476700000003	-284.19846999999993
134	1.108	81.20300000000043	893.81699	129.612	170.80193000000054	903.94688	107.14999000000002	64.89971999999943	501.72631	57.12448	44.66976999999952	114.96250000000002	42.694750000000006	-65.10961000000043	45.229420000000005	182.78185999999997	2.2619999999997162	857.2295300000001	166.58991000000006	-108.23325000000023	470.73250999999993	284.24852000000004	-238.41729000000032	92.82256	479.06197	-379.52158000000054	48.74585999999999	357.8785	28.866689999999835	1014.99316	74.59104	-23.814830000000256	1078.5732800000005	23.524690000000003	-82.24668999999994	1139.14215	-32.58353999999999	-142.30011000000013	1188.26317	-91.11612000000001	-208.74308999999994	1241.7813499999997	-150.33849	-281.83984000000055	1282.25277	-193.81854	-419.98467999999957	1360.71569	-207.95436000000004	-163.13184	1243.642	-139.33141	-69.94732999999997	1319.63935	-181.41858	99.48099000000002	1152.53148	-298.67749000000003	330.5868500000006	1143.61813	-417.02132	347.8709399999998	1176.5792699999995	-431.5728	357.5161100000005	1189.42444	-464.71234999999996	365.75775000000067	1194.2250600000004	-488.45112	373.93283000000065	1194.68141	-508.80606	356.5690999999997	1165.9212	-433.87276	394.8014000000003	1179.54162	-468.15077999999994	412.61209000000053	1182.7403800000002	-499.49614	414.64854000000014	1183.6014899999998	-519.89768	410.2387399999998	1183.55364	-537.4006399999998	358.96739999999954	1153.87559	-434.83191	397.5578000000005	1160.6468400000003	-468.78233	417.1742600000007	1162.4959100000003	-503.01106999999996	419.71820000000025	1162.74713	-527.63665	414.93539000000055	1162.31186	-546.7938300000001	359.79305999999997	1145.0571599999998	-434.5699	395.40720000000056	1143.5857499999997	-464.57884999999993	412.6284399999995	1143.5085999999997	-494.38523999999995	415.14782000000014	1142.8540700000003	-518.12395	410.6818199999998	1142.01981	-536.12961	358.7950700000001	1134.18864	-433.78632000000005	391.21587999999974	1126.27519	-460.62049	405.0425300000006	1123.5848199999998	-484.31504	406.89783999999963	1121.8358600000001	-501.54632000000004	402.95184999999947	1120.3650500000003	-517.44815	-210.01401999999962	1202.90546	-122.86976000000001	-280.95390999999927	1095.9774100000002	-114.23327000000002	-38.18427999999949	1078.74611	-218.28951	202.6621500000001	1115.3478300000004	-308.52302999999995	220.76706000000013	1150.91794	-310.49823	248.63591999999971	1167.8311800000001	-293.36562999999995	270.12813000000006	1175.69151	-281.92884	289.8283499999998	1178.89254	-272.8174000000001	229.97847000000002	1141.29144	-314.62406	279.11691000000064	1161.40526	-316.37220999999994	312.89290000000074	1169.2321699999998	-305.9844299999999	328.1502900000005	1172.3421000000003	-292.61835999999994	336.9062699999995	1173.73167	-276.8956299999999	233.91728000000057	1129.6416099999997	-315.3562299999999	283.97605999999996	1142.96039	-317.46065999999996	321.19218	1149.89099	-306.20197	339.7723100000003	1152.8703499999997	-290.11296	349.43685000000005	1154.0151699999997	-272.92726	235.4737699999996	1120.9387799999997	-315.95029999999997	281.76852000000054	1125.44045	-318.7072	314.4947999999995	1129.8140400000004	-308.96756	332.57002999999986	1131.80252	-293.48744000000005	341.7297400000007	1132.45938	-277.34702000000004	235.62621000000036	1110.00224	-315.62794	278.29014000000006	1107.5330399999998	-318.36577	304.7442199999996	1108.41437	-310.6683300000001	318.0483800000002	1108.59697	-299.42627000000005	326.23145999999997	1108.44921	-285.15679000000006
